<svg fill="none" height="69" viewBox="0 0 245 69" width="245" xmlns="http://www.w3.org/2000/svg" xmlns:xlink="http://www.w3.org/1999/xlink"><linearGradient id="a" gradientUnits="userSpaceOnUse" x1="39.6878" x2="28.9956" y1="9.62385" y2="72.3766"><stop offset="0" stop-color="#3a02aa"/><stop offset=".08" stop-color="#4002ad"/><stop offset=".18" stop-color="#6602bc"/><stop offset=".32" stop-color="#9401cf"/><stop offset=".46" stop-color="#bb01df"/><stop offset=".6" stop-color="#d900eb"/><stop offset=".74" stop-color="#ee00f4"/><stop offset=".87" stop-color="#fb00f9"/><stop offset="1" stop-color="#ff00fb"/></linearGradient><linearGradient id="b" gradientUnits="userSpaceOnUse" x1="49.7746" x2="32.214" y1="-9.67176" y2="53.784"><stop offset="0" stop-color="#ff00fb"/><stop offset=".13" stop-color="#fb00f9"/><stop offset=".26" stop-color="#ee00f4"/><stop offset=".4" stop-color="#d900eb"/><stop offset=".54" stop-color="#bb01df"/><stop offset=".68" stop-color="#9401cf"/><stop offset=".82" stop-color="#6602bc"/><stop offset=".92" stop-color="#4002ad"/><stop offset="1" stop-color="#3a02aa"/></linearGradient><path clip-rule="evenodd" d="m69.0136 33.8225c-.138 13.5412-10.3847 24.8045-23.7721 26.1304-13.3875 1.326-25.6182-7.711-28.375-20.9655-.405-1.5436-.6085-3.1337-.6056-4.7303 0-.2822 0-.5644 0-.841.4524-9.8179 8.4911-17.5436 18.2543-17.5436s17.8019 7.7257 18.2543 17.5436v-.0339c-.0009-13.5262-10.1002-24.89086-23.4537-26.3922s-25.69454 7.3403-28.659756 20.5331c-.406801 2.0756-.6263756 4.184-.656044 6.2994v.4346c0 19.188 15.4517 34.7429 34.5124 34.7429s34.5124-15.5549 34.5124-34.7429c0-.1467-.0056-.3104-.0112-.4346z" fill="url(#a)" fill-rule="evenodd"/><path clip-rule="evenodd" d="m68.4197 28.0573c-3.1893-16.3046-17.3604-28.0573-33.8306-28.0573s-30.64126 11.7527-33.830586 28.0573c2.962716-13.2126 15.293386-22.06752 28.635586-20.56392s23.433 12.88532 23.4339 26.43192v.0282.8424c.0062 9.2564-6.7952 17.0803-15.8913 18.2804-9.096 1.2001-17.6624-4.5963-20.015-13.5431 2.7544 13.2744 14.9749 22.325 28.351 20.9971 13.3762-1.328 23.6143-12.6082 23.7521-26.1697-.0106-2.1154-.2131-4.2253-.6051-6.3033z" fill="url(#b)" fill-rule="evenodd"/><g fill="#fff"><path d="m99.0483 33.5219c-4.9061 0-8.5379-3.5668-8.5379-8.5348s3.6318-8.5029 8.5379-8.5029c4.9057 0 8.5057 3.5349 8.5057 8.5029s-3.6 8.5348-8.5057 8.5348zm0-2.0063c3.5677 0 6.2117-2.6114 6.2117-6.5285s-2.644-6.5285-6.2117-6.5285c-3.5681 0-6.2441 2.6114-6.2441 6.5285s2.676 6.5285 6.2441 6.5285zm24.4987-14.904h2.23l-7.455 16.751h-2.325l-7.423-16.751h2.357l6.276 14.267zm19.56 8.3755c0 .1911-.032.4458-.032.7006h-14.017c.255 3.5031 2.931 5.8279 6.595 5.8279 2.039 0 3.854-.7325 5.129-2.1974l1.274 1.4649c-1.497 1.7834-3.823 2.7388-6.467 2.7388-5.225 0-8.793-3.5668-8.793-8.5348s3.473-8.5029 8.188-8.5029 8.123 3.4712 8.123 8.5029zm-8.123-6.5603c-3.25 0-5.639 2.2929-5.926 5.5731h11.883c-.287-3.2802-2.676-5.5731-5.957-5.5731zm14.909 1.4649c1.051-2.2292 3.186-3.4075 6.276-3.4075v2.1974c-.191 0-.382-.0319-.542-.0319-3.504 0-5.638 2.2292-5.638 6.1782v8.5347h-2.262v-16.751h2.166zm31.252-3.4075c4.078 0 6.754 2.3566 6.754 7.1654v9.713h-2.262v-9.4901c0-3.5349-1.784-5.3502-4.81-5.3502-3.441 0-5.607 2.2293-5.607 6.0508v8.7895h-2.262v-9.4901c0-3.5349-1.784-5.3502-4.842-5.3502-3.409 0-5.607 2.2293-5.607 6.0508v8.7895h-2.262v-16.751h2.166v3.0572c1.179-2.0063 3.345-3.1846 6.149-3.1846 2.771 0 4.937 1.1783 5.957 3.5349 1.21-2.1655 3.6-3.5349 6.626-3.5349zm27.589 8.5029c0 .1911-.032.4458-.032.7006h-14.017c.255 3.5031 2.931 5.8279 6.594 5.8279 2.039 0 3.855-.7325 5.129-2.1974l1.275 1.4649c-1.498 1.7834-3.823 2.7388-6.467 2.7388-5.225 0-8.793-3.5668-8.793-8.5348s3.472-8.5029 8.187-8.5029 8.124 3.4712 8.124 8.5029zm-8.124-6.5603c-3.249 0-5.639 2.2929-5.925 5.5731h11.883c-.287-3.2802-2.676-5.5731-5.958-5.5731zm21.281-1.9426c4.078 0 6.881 2.3566 6.881 7.1654v9.713h-2.262v-9.4901c0-3.5349-1.847-5.3502-5.033-5.3502-3.6 0-5.862 2.2293-5.862 6.0508v8.7895h-2.262v-16.751h2.167v3.089c1.21-2.0381 3.472-3.2164 6.371-3.2164zm21.058 14.2352.796 1.6242c-.892.7961-2.23 1.1783-3.536 1.1783-3.154 0-4.906-1.7834-4.906-4.8725v-10.1271h-2.994v-1.9107h2.994v-3.6624h2.262v3.6624h5.097v1.9107h-5.097v9.9997c0 1.9745 1.02 3.0572 2.899 3.0572.924 0 1.848-.2866 2.485-.8598z"/><path clip-rule="evenodd" d="m99.2895 52.3187-1.3653-2.9875h-6.1592l-1.3501 2.9875h-.8344l4.8848-10.6154h.7737l4.885 10.6154zm-7.2211-3.6396h5.5675l-2.7913-6.1266zm15.9436-7.6127h.759v11.2523h-.743v-1.8653c-.622 1.2284-1.821 1.9259-3.247 1.9259-2.23 0-3.914-1.6529-3.914-4.0186 0-2.3809 1.684-4.0187 3.914-4.0187 1.411 0 2.594.6976 3.231 1.8956zm-3.185 10.6305c1.82 0 3.185-1.3496 3.185-3.3362s-1.365-3.3363-3.185-3.3363c-1.821 0-3.186 1.3497-3.186 3.3363s1.365 3.3362 3.186 3.3362zm9.815-7.3549c1.957 0 3.049 1.0009 3.049 2.9571v5.0196h-.728v-1.4103c-.501.9098-1.472 1.4709-2.852 1.4709-1.775 0-2.852-.9099-2.852-2.2595 0-1.198.758-2.2141 2.958-2.2141h2.716v-.6369c0-1.471-.805-2.2596-2.352-2.2596-1.092 0-2.078.4095-2.731 1.0009l-.379-.5459c.789-.6976 1.942-1.1222 3.171-1.1222zm-.425 7.4156c1.335 0 2.26-.6369 2.716-1.7743v-1.4862h-2.701c-1.638 0-2.215.6825-2.215 1.5923 0 1.0313.804 1.6682 2.2 1.6682zm16.46-7.4156c1.911 0 3.155 1.1373 3.155 3.3514v4.6253h-.758v-4.5646c0-1.7895-.926-2.7297-2.473-2.7297-1.79 0-2.898 1.198-2.898 3.0785v4.2158h-.758v-4.5646c0-1.7895-.925-2.7297-2.473-2.7297-1.79 0-2.897 1.198-2.897 3.0785v4.2158h-.759v-7.9161h.728v1.6985c.516-1.107 1.593-1.7591 3.034-1.7591 1.426 0 2.473.6521 2.898 1.9107.516-1.1525 1.669-1.9107 3.201-1.9107zm18.007 6.3692v-3.6547h.743v3.9732c-.955.9099-2.336 1.3648-3.792 1.3648-3.201 0-5.553-2.2899-5.553-5.3835s2.352-5.3835 5.568-5.3835c1.532 0 2.882.4852 3.823 1.4558l-.486.5156c-.925-.9099-2.032-1.2587-3.322-1.2587-2.761 0-4.809 2.0018-4.809 4.6708 0 2.6538 2.048 4.6708 4.809 4.6708 1.123 0 2.154-.273 3.019-.9706zm6.993 1.6681c-2.275 0-3.959-1.6681-3.959-4.0186 0-2.3506 1.684-4.0187 3.959-4.0187 2.276 0 3.96 1.6681 3.96 4.0187 0 2.3505-1.684 4.0186-3.96 4.0186zm0-.6824c1.821 0 3.186-1.3496 3.186-3.3362s-1.365-3.3363-3.186-3.3363c-1.82 0-3.185 1.3497-3.185 3.3363s1.365 3.3362 3.185 3.3362zm8.314.6824c-1.305 0-2.549-.4397-3.171-1.016l.349-.6066c.607.5156 1.684.9554 2.852.9554 1.669 0 2.336-.5914 2.336-1.4862 0-2.305-5.249-.6066-5.249-3.7153 0-1.1981 1.002-2.1686 3.004-2.1686 1.001 0 2.094.3033 2.716.7734l-.349.6066c-.668-.4853-1.533-.7128-2.382-.7128-1.547 0-2.23.637-2.23 1.4862 0 2.3809 5.249.6976 5.249 3.7154 0 1.289-1.108 2.1685-3.125 2.1685zm9.223-8.0373c2.23 0 3.914 1.6529 3.914 4.0187 0 2.3808-1.684 4.0186-3.914 4.0186-1.395 0-2.579-.6824-3.216-1.8652v4.7466h-.758v-10.8581h.728v1.8653c.622-1.2132 1.82-1.9259 3.246-1.9259zm-.045 7.3549c1.82 0 3.201-1.3496 3.201-3.3362s-1.381-3.3363-3.201-3.3363c-1.821 0-3.186 1.3497-3.186 3.3363s1.365 3.3362 3.186 3.3362zm9.405.6824c-2.275 0-3.959-1.6681-3.959-4.0186 0-2.3506 1.684-4.0187 3.959-4.0187 2.276 0 3.96 1.6681 3.96 4.0187 0 2.3505-1.684 4.0186-3.96 4.0186zm0-.6824c1.821 0 3.186-1.3496 3.186-3.3362s-1.365-3.3363-3.186-3.3363c-1.82 0-3.185 1.3497-3.185 3.3363s1.365 3.3362 3.185 3.3362zm12.592-10.6305h.758v11.2523h-.743v-1.8653c-.622 1.2284-1.821 1.9259-3.247 1.9259-2.23 0-3.914-1.6529-3.914-4.0186 0-2.3809 1.684-4.0187 3.914-4.0187 1.411 0 2.594.6976 3.232 1.8956zm-3.186 10.6305c1.82 0 3.186-1.3496 3.186-3.3362s-1.366-3.3363-3.186-3.3363c-1.821 0-3.186 1.3497-3.186 3.3363s1.365 3.3362 3.186 3.3362zm9.815-7.3549c1.957 0 3.049 1.0009 3.049 2.9571v5.0196h-.728v-1.4103c-.501.9098-1.471 1.4709-2.852 1.4709-1.775 0-2.852-.9099-2.852-2.2595 0-1.198.759-2.2141 2.958-2.2141h2.716v-.6369c0-1.471-.804-2.2596-2.352-2.2596-1.092 0-2.078.4095-2.73 1.0009l-.38-.5459c.789-.6976 1.942-1.1222 3.171-1.1222zm-.425 7.4156c1.335 0 2.261-.6369 2.716-1.7743v-1.4862h-2.701c-1.638 0-2.214.6825-2.214 1.5923 0 1.0313.804 1.6682 2.199 1.6682zm7.328-5.6262c.485-1.1525 1.532-1.7894 3.018-1.7894v.7431c-.06 0-.121-.0152-.182-.0152-1.759 0-2.806 1.1677-2.806 3.1239v4.1249h-.759v-7.9161h.729zm8.176 6.2479c-2.321 0-4.005-1.6681-4.005-4.0186 0-2.3658 1.684-4.0187 4.005-4.0187 1.259 0 2.352.4853 3.004 1.4558l-.561.4095c-.577-.8038-1.457-1.1829-2.443-1.1829-1.866 0-3.231 1.3345-3.231 3.3363 0 2.0017 1.365 3.3362 3.231 3.3362.986 0 1.866-.3791 2.443-1.1828l.561.4094c-.652.9554-1.745 1.4558-3.004 1.4558zm5.173-.7127h5.325v.6521h-6.296v-.5156l5.219-6.7484h-5.143v-.6521h6.129v.5156zm13.032-7.264h.773l-4.065 8.9928c-.637 1.4558-1.426 1.9259-2.473 1.9259-.713 0-1.381-.2426-1.836-.7127l.38-.5763c.409.4246.879.6218 1.471.6218.728 0 1.259-.3337 1.745-1.4104l.424-.9554-3.565-7.8857h.804l3.171 7.082zm8.616 7.9161-3.367-4.231-2.064 1.8804v2.3506h-.758v-11.2523h.758v7.9615l5.067-4.6253h.971l-3.413 3.1998 3.747 4.7163z" fill-rule="evenodd" opacity=".5625"/></g></svg>