<?xml version="1.0" standalone="no"?>
<!DOCTYPE svg PUBLIC "-//W3C//DTD SVG 20010904//EN"
 "http://www.w3.org/TR/2001/REC-SVG-20010904/DTD/svg10.dtd">
<svg version="1.0" xmlns="http://www.w3.org/2000/svg"
 width="700.000000pt" height="700.000000pt" viewBox="0 0 700.000000 700.000000"
 preserveAspectRatio="xMidYMid meet">
<metadata>
Created by potrace 1.14, written by Peter Selinger 2001-2017
</metadata>
<g transform="translate(0.000000,700.000000) scale(0.100000,-0.100000)"
fill="#000000" stroke="none">
<path d="M3279 6996 c-2 -2 -40 -6 -84 -10 -93 -7 -171 -17 -256 -31 -13 -2
-40 -6 -60 -9 -20 -3 -103 -21 -185 -41 -869 -205 -1631 -739 -2119 -1485
-100 -153 -228 -384 -250 -450 -1 -3 -16 -35 -33 -73 -28 -59 -101 -245 -107
-272 -1 -5 -5 -17 -8 -25 -23 -61 -47 -155 -43 -167 3 -8 2 -12 -3 -9 -11 7
-41 -123 -86 -369 -3 -16 -8 -50 -11 -75 -3 -25 -7 -56 -9 -70 -27 -153 -27
-663 0 -821 2 -13 6 -46 9 -74 9 -78 22 -152 51 -285 52 -244 164 -554 288
-800 61 -122 169 -312 187 -330 3 -3 31 -43 62 -90 170 -255 431 -534 708
-755 92 -74 370 -265 386 -265 4 0 15 -6 23 -14 9 -7 81 -47 161 -88 354 -181
736 -303 1109 -354 25 -3 57 -8 71 -10 163 -25 682 -25 842 1 13 2 46 7 73 10
74 11 87 13 120 19 17 4 46 9 65 12 51 8 213 48 300 74 253 74 522 187 734
309 49 28 91 51 93 51 10 0 268 180 353 247 152 119 324 280 450 422 36 41 70
79 76 85 65 68 263 353 352 508 47 80 182 351 182 364 0 3 8 24 19 47 20 44
75 198 110 307 60 187 122 513 137 720 3 41 7 81 10 88 2 7 -1 10 -6 7 -6 -3
-10 -1 -10 4 0 6 4 11 8 11 4 0 8 9 9 20 1 13 -2 18 -10 14 -8 -5 -8 -3 1 7 6
7 12 17 12 22 0 4 -6 5 -12 1 -10 -6 -10 -4 -2 7 16 21 9 354 -10 514 -2 17
-7 57 -11 90 -3 32 -8 62 -10 65 -1 3 -6 27 -9 54 -50 373 -247 887 -484 1260
-278 440 -678 841 -1088 1093 -426 262 -835 418 -1309 498 -163 28 -282 37
-526 41 -141 2 -258 2 -260 0z m473 -1662 c141 -19 321 -66 433 -112 75 -31
270 -133 329 -172 311 -206 548 -490 693 -831 57 -135 107 -307 120 -414 3
-27 9 -54 13 -60 9 -12 5 -442 -5 -500 -38 -222 -88 -382 -175 -560 -308 -634
-955 -1039 -1655 -1037 -138 0 -241 9 -340 29 -11 2 -42 8 -68 13 -229 46
-502 172 -715 332 -318 239 -559 589 -660 958 -51 188 -66 296 -66 500 -1 215
4 274 35 416 132 608 577 1121 1164 1339 102 38 256 79 338 90 25 4 67 10 94
14 77 13 359 10 465 -5z m2438 -3678 c0 -2 -8 -10 -17 -17 -16 -13 -17 -12 -4
4 13 16 21 21 21 13z"/>
</g>
</svg>
