<svg xmlns="http://www.w3.org/2000/svg" xmlns:xlink="http://www.w3.org/1999/xlink" viewBox="0 0 123.1 123.1"><defs><style>.cls-1{fill:url(#Gradient_bez_nazwy_122);}.cls-2{fill:url(#Gradient_bez_nazwy_121);}</style><linearGradient id="Gradient_bez_nazwy_122" x1="70.78" y1="17.91" x2="47.18" y2="129.55" gradientUnits="userSpaceOnUse"><stop offset="0" stop-color="#3a02aa"/><stop offset="0.08" stop-color="#4002ad"/><stop offset="0.18" stop-color="#6602bc"/><stop offset="0.32" stop-color="#9401cf"/><stop offset="0.46" stop-color="#bb01df"/><stop offset="0.6" stop-color="#d900eb"/><stop offset="0.74" stop-color="#ee00f4"/><stop offset="0.87" stop-color="#fb00f9"/><stop offset="1" stop-color="#ff00fb"/></linearGradient><linearGradient id="Gradient_bez_nazwy_121" x1="88.66" y1="-17.12" x2="49.7" y2="93.04" gradientUnits="userSpaceOnUse"><stop offset="0" stop-color="#ff00fb"/><stop offset="0.13" stop-color="#fb00f9"/><stop offset="0.26" stop-color="#ee00f4"/><stop offset="0.4" stop-color="#d900eb"/><stop offset="0.54" stop-color="#bb01df"/><stop offset="0.68" stop-color="#9401cf"/><stop offset="0.82" stop-color="#6602bc"/><stop offset="0.92" stop-color="#4002ad"/><stop offset="1" stop-color="#3a02aa"/></linearGradient></defs><title>Asset 3</title><g id="Layer_2" data-name="Layer 2"><g id="Warstwa_1" data-name="Warstwa 1"><path class="cls-1" d="M123.08,60.78a47,47,0,0,1-93,9.15A32.58,32.58,0,0,1,29,61.55c0-.5,0-1,0-1.49a32.59,32.59,0,0,1,65.11,0V60A47.05,47.05,0,0,0,1.17,49.62,62.19,62.19,0,0,0,0,60.78c0,.26,0,.51,0,.77a61.55,61.55,0,0,0,123.1,0C123.1,61.29,123.09,61,123.08,60.78Z"/><path class="cls-2" d="M121.94,49.62a61.55,61.55,0,0,0-120.77,0A47.05,47.05,0,0,1,94.11,60v.05c0,.49,0,1,0,1.49a32.59,32.59,0,0,1-64.09,8.38,47,47,0,0,0,93-9.15A61.29,61.29,0,0,0,121.94,49.62Z"/></g></g></svg>